<svg aria-hidden="true" style="position: absolute; width: 0px; height: 0px; overflow-x: hidden; overflow-y: hidden;" version="1.1" xmlns="http://www.w3.org/2000/svg">
  <defs>
    <symbol id="icon-facebook" viewBox="0 0 32 32">
      <path d="M19.52 4.64h.96v3.6h-1.2c-.48 0-.96 0-1.2.24-.24.24-.24.48-.24 1.04v1.28h2.64v3.04h-2.64v13.2h-4.08V13.76H11.6v-3.04h2.16V9.68c0-1.76.24-3.04.72-3.6.72-1.04 2.16-1.52 4.32-1.52.24.08.48.08.72.08z"/>
    </symbol>
    <symbol id="icon-youtube" viewBox="0 0 32 32">
      <path d="M24.24 6c-1.36-.08-4.16-.16-8.4-.16h-.56c-4.08 0-6.8.08-8.16.24-1.84.16-3.12.64-3.84 1.28-.64.56-1.12 1.6-1.28 2.96-.08.88-.16 2.72-.16 5.52v.4c0 2.64.08 4.48.24 5.36.24 1.28.64 2.24 1.44 2.8.8.64 2.16 1.04 4.08 1.2 1.36.08 4.16.16 8.4.16h.56c4.08 0 6.8-.08 8.16-.24 1.84-.16 3.12-.64 3.84-1.28.64-.56 1.12-1.6 1.28-2.96.08-.88.16-2.72.16-5.52v-.4c0-2.64-.08-4.48-.24-5.36-.24-1.28-.64-2.24-1.44-2.8-.8-.64-2.16-1.04-4.08-1.2zm-3.12 9.84-8.8 5.28V10.56l8.8 5.28z"/>
    </symbol>
    <symbol id="icon-instagram" viewBox="0 0 32 32">
      <path d="M28.718 10.756a9.264 9.264 0 0 0-.596-3.145 6.547 6.547 0 0 0-3.743-3.736 9.42 9.42 0 0 0-3.11-.596C19.905 3.218 19.47 3.2 16 3.2s-3.916 0-5.274.078a9.418 9.418 0 0 0-3.106.596A6.54 6.54 0 0 0 3.875 7.61a9.288 9.288 0 0 0-.596 3.102c-.062 1.367-.08 1.8-.08 5.265s0 3.91.08 5.265a9.34 9.34 0 0 0 .595 3.104A6.548 6.548 0 0 0 7.62 28.08a9.37 9.37 0 0 0 3.105.64c1.37.06 1.803.08 5.274.08s3.916 0 5.273-.08a9.357 9.357 0 0 0 3.108-.595 6.555 6.555 0 0 0 3.744-3.737c.374-.993.574-2.04.596-3.104.06-1.365.08-1.798.08-5.265-.004-3.467-.004-3.907-.083-5.265zM15.99 22.53c-3.63 0-6.572-2.935-6.572-6.56s2.94-6.56 6.572-6.56c3.628 0 6.572 2.935 6.572 6.56s-2.944 6.56-6.572 6.56zm6.834-11.834a1.53 1.53 0 1 1 0-3.06 1.53 1.53 0 1 1 0 3.06z"/>
      <path d="M15.992 19.976a4.004 4.004 0 1 0 0-8.009 4.004 4.004 0 0 0 0 8.01z"/>
    </symbol>
    <symbol id="icon-menu" viewBox="0 0 32 32">
      <path stroke-linejoin="round" stroke-linecap="round" stroke-miterlimit="4" stroke-width="2.4" d="M4 11.333h24M4 20.667h24"/>
    </symbol>
    <symbol id="icon-close" viewBox="0 0 32 32">
      <path stroke-linejoin="round" stroke-linecap="round" stroke-miterlimit="4" stroke-width="2.3529" d="M24 8 8 24"/>
      <path stroke-linejoin="round" stroke-linecap="round" stroke-miterlimit="4" stroke-width="2.3529" d="m8 8 16 16"/>
    </symbol>
  </defs>
</svg>